<mxGraphModel dx="2227" dy="1194" grid="1" gridSize="10" guides="1" tooltips="1" connect="1" arrows="1" fold="1" page="1" pageScale="1" pageWidth="827" pageHeight="1169" math="0" shadow="0"><root><mxCell id="0"/><mxCell id="1" parent="0"/><mxCell id="yrpsyPFtfuvaEQhXYGO_-16" value="Initial Commit" style="rounded=1;whiteSpace=wrap;html=1;fillColor=#CCFF99;fontStyle=1" parent="1" vertex="1"><mxGeometry x="110" y="128" width="100" height="40" as="geometry"/></mxCell><mxCell id="yrpsyPFtfuvaEQhXYGO_-21" style="edgeStyle=none;rounded=0;orthogonalLoop=1;jettySize=auto;html=1;exitX=1;exitY=0.5;exitDx=0;exitDy=0;entryX=0;entryY=0.5;entryDx=0;entryDy=0;endArrow=classicThin;endFill=1;" parent="1" source="yrpsyPFtfuvaEQhXYGO_-16" target="-IuOv1e31eIhTOnqOoDs-2" edge="1"><mxGeometry relative="1" as="geometry"><mxPoint x="214" y="90" as="targetPoint"/></mxGeometry></mxCell><mxCell id="-IuOv1e31eIhTOnqOoDs-2" value="Implementation of Addition" style="rounded=1;whiteSpace=wrap;html=1;fillColor=#FFFFCC;fontStyle=1" parent="1" vertex="1"><mxGeometry x="275" y="70" width="134" height="40" as="geometry"/></mxCell><mxCell id="-IuOv1e31eIhTOnqOoDs-3" value="Minor Bugfix" style="rounded=1;whiteSpace=wrap;html=1;fillColor=#FFFFCC;fontStyle=1" parent="1" vertex="1"><mxGeometry x="446" y="70" width="94" height="40" as="geometry"/></mxCell><mxCell id="-IuOv1e31eIhTOnqOoDs-4" value="Implementation of Multiplication" style="rounded=1;whiteSpace=wrap;html=1;fillColor=#99FFFF;fontStyle=1" parent="1" vertex="1"><mxGeometry x="285" y="180" width="126" height="40" as="geometry"/></mxCell><mxCell id="-IuOv1e31eIhTOnqOoDs-5" style="edgeStyle=none;rounded=0;orthogonalLoop=1;jettySize=auto;html=1;exitX=1;exitY=0.5;exitDx=0;exitDy=0;entryX=0;entryY=0.5;entryDx=0;entryDy=0;endArrow=classicThin;endFill=1;" parent="1" source="yrpsyPFtfuvaEQhXYGO_-16" target="-IuOv1e31eIhTOnqOoDs-4" edge="1"><mxGeometry relative="1" as="geometry"><mxPoint x="170" y="150" as="sourcePoint"/><mxPoint x="224" y="100" as="targetPoint"/></mxGeometry></mxCell><mxCell id="-IuOv1e31eIhTOnqOoDs-6" style="edgeStyle=none;rounded=0;orthogonalLoop=1;jettySize=auto;html=1;exitX=1;exitY=0.5;exitDx=0;exitDy=0;entryX=0;entryY=0.5;entryDx=0;entryDy=0;endArrow=classicThin;endFill=1;" parent="1" source="-IuOv1e31eIhTOnqOoDs-2" target="-IuOv1e31eIhTOnqOoDs-3" edge="1"><mxGeometry relative="1" as="geometry"><mxPoint x="229" y="150" as="sourcePoint"/><mxPoint x="285" y="100" as="targetPoint"/></mxGeometry></mxCell><mxCell id="-IuOv1e31eIhTOnqOoDs-7" value="Branch:&lt;br&gt;&lt;b&gt;addition&lt;/b&gt;" style="text;html=1;strokeColor=none;fillColor=none;align=center;verticalAlign=middle;whiteSpace=wrap;rounded=0;" parent="1" vertex="1"><mxGeometry x="183" y="70" width="75" height="40" as="geometry"/></mxCell><mxCell id="-IuOv1e31eIhTOnqOoDs-8" value="Branch:&lt;br&gt;&lt;b&gt;master&lt;/b&gt;" style="text;html=1;strokeColor=none;fillColor=none;align=center;verticalAlign=middle;whiteSpace=wrap;rounded=0;" parent="1" vertex="1"><mxGeometry x="30" y="133" width="76" height="30" as="geometry"/></mxCell><mxCell id="-IuOv1e31eIhTOnqOoDs-10" value="Branch:&lt;br&gt;&lt;b&gt;multiplication&lt;/b&gt;" style="text;html=1;strokeColor=none;fillColor=none;align=center;verticalAlign=middle;whiteSpace=wrap;rounded=0;" parent="1" vertex="1"><mxGeometry x="177" y="185" width="106" height="30" as="geometry"/></mxCell><mxCell id="-IuOv1e31eIhTOnqOoDs-11" value="&lt;span style=&quot;color: rgb(46 , 46 , 46) ; white-space: nowrap&quot;&gt;Merge branch&lt;br&gt;'division' into 'master'&lt;/span&gt;" style="rounded=1;whiteSpace=wrap;html=1;fillColor=#CCFF99;fontStyle=1;align=center;" parent="1" vertex="1"><mxGeometry x="464" y="128" width="135" height="40" as="geometry"/></mxCell><mxCell id="-IuOv1e31eIhTOnqOoDs-14" value="&lt;span style=&quot;color: rgb(46 , 46 , 46) ; white-space: nowrap&quot;&gt;Merge branch&lt;br&gt;'addition' into 'master'&lt;/span&gt;" style="rounded=1;whiteSpace=wrap;html=1;fillColor=#CCFF99;fontStyle=1;align=center;" parent="1" vertex="1"><mxGeometry x="632" y="128" width="135" height="40" as="geometry"/></mxCell><mxCell id="-IuOv1e31eIhTOnqOoDs-15" style="edgeStyle=none;rounded=0;orthogonalLoop=1;jettySize=auto;html=1;exitX=1;exitY=0.5;exitDx=0;exitDy=0;entryX=0;entryY=0.75;entryDx=0;entryDy=0;endArrow=classicThin;endFill=1;" parent="1" source="-IuOv1e31eIhTOnqOoDs-4" target="-IuOv1e31eIhTOnqOoDs-11" edge="1"><mxGeometry relative="1" as="geometry"><mxPoint x="220" y="158" as="sourcePoint"/><mxPoint x="333" y="210" as="targetPoint"/></mxGeometry></mxCell><mxCell id="-IuOv1e31eIhTOnqOoDs-16" style="edgeStyle=none;rounded=0;orthogonalLoop=1;jettySize=auto;html=1;exitX=1;exitY=0.5;exitDx=0;exitDy=0;entryX=0;entryY=0.5;entryDx=0;entryDy=0;endArrow=classicThin;endFill=1;" parent="1" source="-IuOv1e31eIhTOnqOoDs-11" target="-IuOv1e31eIhTOnqOoDs-14" edge="1"><mxGeometry relative="1" as="geometry"><mxPoint x="459" y="210" as="sourcePoint"/><mxPoint x="533" y="158" as="targetPoint"/></mxGeometry></mxCell><mxCell id="-IuOv1e31eIhTOnqOoDs-17" style="edgeStyle=none;rounded=0;orthogonalLoop=1;jettySize=auto;html=1;exitX=1;exitY=0.5;exitDx=0;exitDy=0;entryX=0;entryY=0.25;entryDx=0;entryDy=0;endArrow=classicThin;endFill=1;" parent="1" source="-IuOv1e31eIhTOnqOoDs-3" target="-IuOv1e31eIhTOnqOoDs-14" edge="1"><mxGeometry relative="1" as="geometry"><mxPoint x="469" y="220" as="sourcePoint"/><mxPoint x="543" y="168" as="targetPoint"/></mxGeometry></mxCell><mxCell id="-IuOv1e31eIhTOnqOoDs-18" style="edgeStyle=none;rounded=0;orthogonalLoop=1;jettySize=auto;html=1;exitX=1;exitY=0.5;exitDx=0;exitDy=0;entryX=0;entryY=0.5;entryDx=0;entryDy=0;endArrow=classicThin;endFill=1;" parent="1" source="yrpsyPFtfuvaEQhXYGO_-16" target="-IuOv1e31eIhTOnqOoDs-11" edge="1"><mxGeometry relative="1" as="geometry"><mxPoint x="420.9999999999998" y="210" as="sourcePoint"/><mxPoint x="474" y="168" as="targetPoint"/></mxGeometry></mxCell></root></mxGraphModel>